<svg width="24" height="24" viewBox="0 0 24 24"
    xmlns="http://www.w3.org/2000/svg">
    <path d="M8.61704 22.5C8.07195 22.4991 7.54108 22.326 7.10016 22.0055C6.75984 21.7596 6.48268 21.4365 6.29143 21.0627C6.10019 20.689 6.00031 20.2752 6.00001 19.8553C5.99878 19.3618 6.15259 18.8803 6.43973 18.4788C6.72687 18.0774 7.13283 17.7763 7.60032 17.618L9.98438 16.8155C10.1356 16.7639 10.2668 16.6659 10.3594 16.5356C10.4519 16.4053 10.5011 16.2492 10.5 16.0894V4.31251C10.4993 3.97828 10.6099 3.65333 10.8144 3.38894C11.0189 3.12455 11.3056 2.93576 11.6292 2.85236L16.71 1.53329C16.8624 1.49379 17.0218 1.48971 17.1761 1.52136C17.3303 1.55301 17.4752 1.61956 17.5998 1.71589C17.7243 1.81223 17.8251 1.93581 17.8945 2.07714C17.9639 2.21848 18 2.37382 18 2.53126V5.23829C18.0009 5.57355 17.8898 5.8995 17.6842 6.16438C17.4787 6.42926 17.1906 6.6179 16.8656 6.70033L12.5695 7.78454C12.4055 7.82723 12.2604 7.92345 12.1572 8.05795C12.054 8.19245 11.9987 8.35754 12 8.52704V19.875C12.0013 20.3488 11.8536 20.8111 11.5779 21.1964C11.3022 21.5817 10.9123 21.8706 10.4634 22.0224L9.45704 22.3613C9.18645 22.4529 8.90272 22.4998 8.61704 22.5Z"/>
</svg>
